<?xml version="1.0" encoding="UTF-8"?>
<svg stroke="black" xmlns="http://www.w3.org/2000/svg" viewBox="0 0 300 280" fill="none"><g><line y1="150.000000" x2="60.000000" x1="60.000000" y2="170.000000"/>
<line y1="170.000000" x2="48.000000" x1="72.000000" y2="170.000000"/>
<clipPath id="rectClip0"><polygon points="48.000000,170.000000 72.000000,170.000000 72.000000,182.000000 48.000000,182.000000"/>
</clipPath>
<g clip-path="url(#rectClip0)"><line y1="170.000000" x2="54.000000" x1="42.000000" y2="182.000000"/>
<line y1="170.000000" x2="62.000000" x1="50.000000" y2="182.000000"/>
<line y1="170.000000" x2="70.000000" x1="58.000000" y2="182.000000"/>
<line y1="170.000000" x2="78.000000" x1="66.000000" y2="182.000000"/>
<line y1="170.000000" x2="86.000000" x1="74.000000" y2="182.000000"/>
</g>
</g>
<g><line y1="150.000000" x2="60.000000" x1="60.000000" y2="70.000000"/>
<path d="M 60.000000,94.000000 C 51.163440,94.000000 44.000000,101.163440 44.000000,110.000000 C 44.000000,118.836560 51.163440,126.000000 60.000000,126.000000 C 68.836560,126.000000 76.000000,118.836560 76.000000,110.000000 C 76.000000,101.163440 68.836560,94.000000 60.000000,94.000000 "/>
<g><line y1="126.000000" x2="40.000000" x1="40.000000" y2="94.000000"/>
<path d="M 37.000000,100.000000 L 40.000000,94.000000 L 43.000000,100.000000 "/>
</g>
<text font-size="15.000000" text-anchor="end" stroke="none" y="116.000000" x="35.500000" fill="black"><tspan dy="0">V1</tspan></text>
</g>
<g><line y1="70.000000" x2="80.000000" x1="60.000000" y2="70.000000"/>
<line y1="70.000000" x2="140.000000" x1="120.000000" y2="70.000000"/>
<polygon points="80.000000,78.000000 120.000000,78.000000 120.000000,62.000000 80.000000,62.000000 "/>
<text font-size="15.000000" text-anchor="middle" stroke="none" y="54.500000" x="100.000000" fill="black"><tspan dy="0">R1</tspan></text>
</g>
<line y1="70.000000" x2="220.000000" x1="140.000000" y2="70.000000"/>
<g><line y1="150.000000" x2="140.000000" x1="140.000000" y2="114.000000"/>
<line y1="106.000000" x2="140.000000" x1="140.000000" y2="70.000000"/>
<line y1="114.000000" x2="120.000000" x1="160.000000" y2="114.000000"/>
<line y1="106.000000" x2="120.000000" x1="160.000000" y2="106.000000"/>
<text font-size="15.000000" text-anchor="end" stroke="none" y="116.000000" x="115.500000" fill="black"><tspan dy="0">C1</tspan></text>
</g>
<g><line y1="150.000000" x2="220.000000" x1="220.000000" y2="134.000000"/>
<line y1="86.000000" x2="220.000000" x1="220.000000" y2="70.000000"/>
<path d="M 220.000000,118.000000 C 215.581720,118.000000 212.000000,121.581720 212.000000,126.000000 C 212.000000,130.418280 215.581720,134.000000 220.000000,134.000000 "/>
<path d="M 220.000000,102.000000 C 215.581720,102.000000 212.000000,105.581720 212.000000,110.000000 C 212.000000,114.418280 215.581720,118.000000 220.000000,118.000000 "/>
<path d="M 220.000000,86.000000 C 215.581720,86.000000 212.000000,89.581720 212.000000,94.000000 C 212.000000,98.418280 215.581720,102.000000 220.000000,102.000000 "/>
<text font-size="15.000000" text-anchor="end" stroke="none" y="116.000000" x="207.500000" fill="black"><tspan dy="0">L1</tspan></text>
</g>
<g><line y1="230.000000" x2="220.000000" x1="220.000000" y2="210.000000"/>
<line y1="170.000000" x2="220.000000" x1="220.000000" y2="150.000000"/>
<polygon points="228.000000,210.000000 228.000000,170.000000 212.000000,170.000000 212.000000,210.000000 "/>
<text font-size="15.000000" text-anchor="end" stroke="none" y="196.000000" x="207.500000" fill="black"><tspan dy="0">R</tspan></text>
</g>
<g><line y1="230.000000" x2="220.000000" x1="220.000000" y2="250.000000"/>
<line y1="250.000000" x2="208.000000" x1="232.000000" y2="250.000000"/>
<clipPath id="rectClip1"><polygon points="208.000000,250.000000 232.000000,250.000000 232.000000,262.000000 208.000000,262.000000"/>
</clipPath>
<g clip-path="url(#rectClip1)"><line y1="250.000000" x2="214.000000" x1="202.000000" y2="262.000000"/>
<line y1="250.000000" x2="222.000000" x1="210.000000" y2="262.000000"/>
<line y1="250.000000" x2="230.000000" x1="218.000000" y2="262.000000"/>
<line y1="250.000000" x2="238.000000" x1="226.000000" y2="262.000000"/>
<line y1="250.000000" x2="246.000000" x1="234.000000" y2="262.000000"/>
</g>
</g>
<g><line y1="150.000000" x2="140.000000" x1="140.000000" y2="170.000000"/>
<line y1="170.000000" x2="128.000000" x1="152.000000" y2="170.000000"/>
<clipPath id="rectClip2"><polygon points="128.000000,170.000000 152.000000,170.000000 152.000000,182.000000 128.000000,182.000000"/>
</clipPath>
<g clip-path="url(#rectClip2)"><line y1="170.000000" x2="134.000000" x1="122.000000" y2="182.000000"/>
<line y1="170.000000" x2="142.000000" x1="130.000000" y2="182.000000"/>
<line y1="170.000000" x2="150.000000" x1="138.000000" y2="182.000000"/>
<line y1="170.000000" x2="158.000000" x1="146.000000" y2="182.000000"/>
<line y1="170.000000" x2="166.000000" x1="154.000000" y2="182.000000"/>
</g>
</g>
<g stroke="red" fill="red"><g><path d="M 61.600000,150.000000 C 61.600000,149.116360 60.883640,148.400000 60.000000,148.400000 C 59.116360,148.400000 58.400000,149.116360 58.400000,150.000000 C 58.400000,150.883640 59.116360,151.600000 60.000000,151.600000 C 60.883640,151.600000 61.600000,150.883640 61.600000,150.000000 "/>
<text y="163.950000" x="64.500000" font-size="10.500000" stroke="none" text-anchor="start"><tspan dy="0">0</tspan></text>
</g>
<g><path d="M 61.600000,70.000000 C 61.600000,69.116360 60.883640,68.400000 60.000000,68.400000 C 59.116360,68.400000 58.400000,69.116360 58.400000,70.000000 C 58.400000,70.883640 59.116360,71.600000 60.000000,71.600000 C 60.883640,71.600000 61.600000,70.883640 61.600000,70.000000 "/>
<text y="63.400000" x="60.000000" font-size="10.500000" stroke="none" text-anchor="middle"><tspan dy="0">1</tspan></text>
</g>
<g><path d="M 141.600000,70.000000 C 141.600000,69.116360 140.883640,68.400000 140.000000,68.400000 C 139.116360,68.400000 138.400000,69.116360 138.400000,70.000000 C 138.400000,70.883640 139.116360,71.600000 140.000000,71.600000 C 140.883640,71.600000 141.600000,70.883640 141.600000,70.000000 "/>
<text y="63.400000" x="140.000000" font-size="10.500000" stroke="none" text-anchor="middle"><tspan dy="0">2</tspan></text>
</g>
<g><path d="M 221.600000,150.000000 C 221.600000,149.116360 220.883640,148.400000 220.000000,148.400000 C 219.116360,148.400000 218.400000,149.116360 218.400000,150.000000 C 218.400000,150.883640 219.116360,151.600000 220.000000,151.600000 C 220.883640,151.600000 221.600000,150.883640 221.600000,150.000000 "/>
<text y="154.200000" x="224.500000" font-size="10.500000" stroke="none" text-anchor="start"><tspan dy="0">3</tspan></text>
</g>
</g>
</svg>