<?xml version="1.0" encoding="UTF-8"?>
<svg xmlns="http://www.w3.org/2000/svg" stroke="black" stroke-linecap="round" viewBox="0 0 400 200" fill="none"><g><line y1="150.000000" x2="60.000000" x1="60.000000" y2="170.000000"/>
<line y1="170.000000" x2="48.000000" x1="72.000000" y2="170.000000"/>
<clipPath id="rectClip0"><polygon points="48.000000,170.000000 72.000000,170.000000 72.000000,182.000000 48.000000,182.000000"/>
</clipPath>
<g clip-path="url(#rectClip0)"><line y1="170.000000" x2="54.000000" x1="42.000000" y2="182.000000"/>
<line y1="170.000000" x2="62.000000" x1="50.000000" y2="182.000000"/>
<line y1="170.000000" x2="70.000000" x1="58.000000" y2="182.000000"/>
<line y1="170.000000" x2="78.000000" x1="66.000000" y2="182.000000"/>
<line y1="170.000000" x2="86.000000" x1="74.000000" y2="182.000000"/>
</g>
</g>
<g><line y1="150.000000" x2="60.000000" x1="60.000000" y2="70.000000"/>
<path d="M 60.000000,94.000000 C 51.163440,94.000000 44.000000,101.163440 44.000000,110.000000 C 44.000000,118.836560 51.163440,126.000000 60.000000,126.000000 C 68.836560,126.000000 76.000000,118.836560 76.000000,110.000000 C 76.000000,101.163440 68.836560,94.000000 60.000000,94.000000 "/>
<g><line y1="126.000000" x2="40.000000" x1="40.000000" y2="94.000000"/>
<path d="M 37.000000,100.000000 L 40.000000,94.000000 L 43.000000,100.000000 "/>
</g>
<text font-size="20.000000" text-anchor="end" stroke="none" y="118.000000" x="34.000000" fill="black"><tspan dy="0">V</tspan><tspan dy="6" font-size="16">1</tspan></text>
</g>
<g><line y1="70.000000" x2="80.000000" x1="60.000000" y2="70.000000"/>
<line y1="70.000000" x2="140.000000" x1="120.000000" y2="70.000000"/>
<polygon points="80.000000,78.000000 120.000000,78.000000 120.000000,62.000000 80.000000,62.000000 "/>
<text font-size="20.000000" text-anchor="middle" stroke="none" y="52.000000" x="100.000000" fill="black"><tspan dy="0">R</tspan><tspan dy="6" font-size="16">1</tspan></text>
</g>
<g><line y1="150.000000" x2="140.000000" x1="140.000000" y2="114.000000"/>
<line y1="106.000000" x2="140.000000" x1="140.000000" y2="70.000000"/>
<line y1="114.000000" x2="120.000000" x1="160.000000" y2="114.000000"/>
<line y1="106.000000" x2="120.000000" x1="160.000000" y2="106.000000"/>
<text font-size="20.000000" text-anchor="end" stroke="none" y="118.000000" x="114.000000" fill="black"><tspan dy="0">C</tspan><tspan dy="6" font-size="16">1</tspan></text>
</g>
<g><line y1="150.000000" x2="220.000000" x1="220.000000" y2="130.000000"/>
<line y1="90.000000" x2="220.000000" x1="220.000000" y2="70.000000"/>
<polygon points="228.000000,130.000000 228.000000,90.000000 212.000000,90.000000 212.000000,130.000000 "/>
<text font-size="20.000000" text-anchor="end" stroke="none" y="118.000000" x="206.000000" fill="black"><tspan dy="0">R</tspan><tspan dy="6" font-size="16">2</tspan></text>
</g>
<line y1="150.000000" x2="220.000000" x1="60.000000" y2="150.000000"/>
<line y1="70.000000" x2="220.000000" x1="140.000000" y2="70.000000"/>
<g fill="red"><text y="155.600000" x="66.000000" font-size="14.000000" stroke="none" text-anchor="start"><tspan dy="0">0</tspan></text>
<text y="61.200000" x="60.000000" font-size="14.000000" stroke="none" text-anchor="middle"><tspan dy="0">1</tspan></text>
<text y="61.200000" x="134.000000" font-size="14.000000" stroke="none" text-anchor="end"><tspan dy="0">2</tspan></text>
</g>
</svg>