<!-- Created with Inkscape (http://www.inkscape.org/) -->
<svg xmlns:dc="http://purl.org/dc/elements/1.1/" xmlns:cc="http://creativecommons.org/ns#" xmlns:rdf="http://www.w3.org/1999/02/22-rdf-syntax-ns#" xmlns:svg="http://www.w3.org/2000/svg" xmlns="http://www.w3.org/2000/svg" xmlns:sodipodi="http://sodipodi.sourceforge.net/DTD/sodipodi-0.dtd" xmlns:inkscape="http://www.inkscape.org/namespaces/inkscape" id="svg2985" version="1.1" inkscape:version="0.48.4 r9939" xml:space="preserve" sodipodi:docname="pontH_motorShield.pdf" viewBox="0 0 744.09497 400">
  <metadata id="metadata2991">
    <rdf:RDF>
      <cc:Work rdf:about="">
        <dc:format>image/svg+xml</dc:format>
        <dc:type rdf:resource="http://purl.org/dc/dcmitype/StillImage"/>
        <dc:title/>
      </cc:Work>
    </rdf:RDF>
  </metadata>
  <defs id="defs2989"/>
  <sodipodi:namedview pagecolor="#ffffff" bordercolor="#666666" borderopacity="1" objecttolerance="10" gridtolerance="10" guidetolerance="10" inkscape:pageopacity="0" inkscape:pageshadow="2" inkscape:window-width="1280" inkscape:window-height="738" id="namedview2987" showgrid="false" inkscape:zoom="0.49507653" inkscape:cx="372.04749" inkscape:cy="526.18127" inkscape:window-x="-8" inkscape:window-y="-8" inkscape:window-maximized="1" inkscape:current-layer="g2993"/>
  <g id="g2993" inkscape:groupmode="layer" inkscape:label="pontH_motorShield" transform="matrix(1.25,0,0,-1.25,0,399.99995)">
    <g id="g2995" transform="matrix(0.2835,0,0,0.2835,1.6159118,366.92194)"><text transform="matrix(1,0,0,-1,1100,-544)" id="text2997"><tspan style="font-size:27px;font-variant:normal;font-weight:normal;writing-mode:lr-tb;fill:#000000;fill-opacity:1;fill-rule:nonzero;stroke:none;font-family:Helvetica;-inkscape-font-specification:Helvetica" x="0" y="0" id="tspan2999">U</tspan></text>
<text transform="matrix(1,0,0,-1,1560,-934)" id="text3001"><tspan style="font-size:27px;font-variant:normal;font-weight:normal;writing-mode:lr-tb;fill:#000000;fill-opacity:1;fill-rule:nonzero;stroke:none;font-family:Helvetica;-inkscape-font-specification:Helvetica" x="0 21 40" y="0" sodipodi:role="line" id="tspan3003">GND</tspan><tspan style="font-size:27px;font-variant:normal;font-weight:normal;writing-mode:lr-tb;fill:#000000;fill-opacity:1;fill-rule:nonzero;stroke:none;font-family:Helvetica;-inkscape-font-specification:Helvetica" x="-680 -661" y="-290" sodipodi:role="line" id="tspan3005">R1</tspan><tspan style="font-size:27px;font-variant:normal;font-weight:normal;writing-mode:lr-tb;fill:#000000;fill-opacity:1;fill-rule:nonzero;stroke:none;font-family:Helvetica;-inkscape-font-specification:Helvetica" x="-680 -665" y="-260" sodipodi:role="line" id="tspan3007">1K</tspan><tspan style="font-size:27px;font-variant:normal;font-weight:normal;writing-mode:lr-tb;fill:#000000;fill-opacity:1;fill-rule:nonzero;stroke:none;font-family:Helvetica;-inkscape-font-specification:Helvetica" x="-520 -501" y="-270" sodipodi:role="line" id="tspan3009">C1</tspan><tspan style="font-size:27px;font-variant:normal;font-weight:normal;writing-mode:lr-tb;fill:#000000;fill-opacity:1;fill-rule:nonzero;stroke:none;font-family:Helvetica;-inkscape-font-specification:Helvetica" x="-520 -505" y="-240" sodipodi:role="line" id="tspan3011">1u</tspan></text>
<text transform="matrix(1,0,0,-1,1710,-613)" id="text3013"><tspan style="font-size:36px;font-variant:normal;font-weight:normal;writing-mode:lr-tb;fill:#000000;fill-opacity:1;fill-rule:nonzero;stroke:none;font-family:Helvetica;-inkscape-font-specification:Helvetica" x="0 20 40 50" y="0" sodipodi:role="line" id="tspan3015">10 V</tspan></text>
<path d="m 1160,-520 -120,0" style="fill:none;stroke:#000000;stroke-width:2;stroke-linecap:butt;stroke-linejoin:miter;stroke-miterlimit:10;stroke-opacity:1;stroke-dasharray:none" id="path3017" inkscape:connector-curvature="0"/><path d="m 1040,-520 20,10 0,-20 -20,10 z" style="fill:#000000;fill-opacity:1;fill-rule:evenodd;stroke:#000000;stroke-width:2;stroke-linecap:butt;stroke-linejoin:miter;stroke-miterlimit:10;stroke-opacity:1;stroke-dasharray:none" id="path3019" inkscape:connector-curvature="0"/><text transform="matrix(1,0,0,-1,140,-741)" id="text3021"><tspan style="font-size:45px;font-variant:normal;font-weight:normal;writing-mode:lr-tb;fill:#000000;fill-opacity:1;fill-rule:nonzero;stroke:none;font-family:Helvetica;-inkscape-font-specification:Helvetica" x="0 30 72" y="0" sodipodi:role="line" id="tspan3023">PWM</tspan></text>
<text transform="matrix(1,0,0,-1,680,-453)" id="text3025"><tspan style="font-size:36px;font-variant:normal;font-weight:normal;writing-mode:lr-tb;fill:#000000;fill-opacity:1;fill-rule:nonzero;stroke:none;font-family:Helvetica;-inkscape-font-specification:Helvetica" x="0 22" y="0" sodipodi:role="line" id="tspan3027">T1</tspan><tspan style="font-size:36px;font-variant:normal;font-weight:normal;writing-mode:lr-tb;fill:#000000;fill-opacity:1;fill-rule:nonzero;stroke:none;font-family:Helvetica;-inkscape-font-specification:Helvetica" x="620 642" y="240" sodipodi:role="line" id="tspan3029">T2</tspan><tspan style="font-size:36px;font-variant:normal;font-weight:normal;writing-mode:lr-tb;fill:#000000;fill-opacity:1;fill-rule:nonzero;stroke:none;font-family:Helvetica;-inkscape-font-specification:Helvetica" x="0 22" y="340" sodipodi:role="line" id="tspan3031">T3</tspan><tspan style="font-size:36px;font-variant:normal;font-weight:normal;writing-mode:lr-tb;fill:#000000;fill-opacity:1;fill-rule:nonzero;stroke:none;font-family:Helvetica;-inkscape-font-specification:Helvetica" x="620 642" y="0" sodipodi:role="line" id="tspan3033">T4</tspan></text>
<path d="m 730,-510 20,20 0,-20 -20,0 z" style="fill:#000000;fill-opacity:1;fill-rule:evenodd;stroke:#000000;stroke-width:2;stroke-linecap:butt;stroke-linejoin:miter;stroke-miterlimit:10;stroke-opacity:1;stroke-dasharray:none" id="path3035" inkscape:connector-curvature="0"/><path d="m 720,-440 0,-80" style="fill:none;stroke:#000000;stroke-width:2;stroke-linecap:butt;stroke-linejoin:miter;stroke-miterlimit:10;stroke-opacity:1;stroke-dasharray:none" id="path3037" inkscape:connector-curvature="0"/><path d="m 760,-440 -40,-40" style="fill:none;stroke:#000000;stroke-width:2;stroke-linecap:butt;stroke-linejoin:miter;stroke-miterlimit:10;stroke-opacity:1;stroke-dasharray:none" id="path3039" inkscape:connector-curvature="0"/><path d="m 720,-480 40,-40" style="fill:none;stroke:#000000;stroke-width:2;stroke-linecap:butt;stroke-linejoin:miter;stroke-miterlimit:10;stroke-opacity:1;stroke-dasharray:none" id="path3041" inkscape:connector-curvature="0"/><path d="m 755,-395 10,0 0,-10 -10,0 0,10 z" style="fill:#000000;fill-opacity:1;fill-rule:evenodd;stroke:#000000;stroke-width:2;stroke-linecap:butt;stroke-linejoin:miter;stroke-miterlimit:10;stroke-opacity:1;stroke-dasharray:none" id="path3043" inkscape:connector-curvature="0"/><path d="m 760,-400 0,-40" style="fill:none;stroke:#000000;stroke-width:2;stroke-linecap:butt;stroke-linejoin:miter;stroke-miterlimit:10;stroke-opacity:1;stroke-dasharray:none" id="path3045" inkscape:connector-curvature="0"/><path d="m 675,-475 10,0 0,-10 -10,0 0,10 z" style="fill:#000000;fill-opacity:1;fill-rule:evenodd;stroke:#000000;stroke-width:2;stroke-linecap:butt;stroke-linejoin:miter;stroke-miterlimit:10;stroke-opacity:1;stroke-dasharray:none" id="path3047" inkscape:connector-curvature="0"/><path d="m 680,-480 40,0" style="fill:none;stroke:#000000;stroke-width:2;stroke-linecap:butt;stroke-linejoin:miter;stroke-miterlimit:10;stroke-opacity:1;stroke-dasharray:none" id="path3049" inkscape:connector-curvature="0"/><path d="m 755,-555 10,0 0,-10 -10,0 0,10 z" style="fill:#000000;fill-opacity:1;fill-rule:evenodd;stroke:#000000;stroke-width:2;stroke-linecap:butt;stroke-linejoin:miter;stroke-miterlimit:10;stroke-opacity:1;stroke-dasharray:none" id="path3051" inkscape:connector-curvature="0"/><path d="m 760,-560 0,40" style="fill:none;stroke:#000000;stroke-width:2;stroke-linecap:butt;stroke-linejoin:miter;stroke-miterlimit:10;stroke-opacity:1;stroke-dasharray:none" id="path3053" inkscape:connector-curvature="0"/><path d="m 730,-750 20,20 0,-20 -20,0 z" style="fill:#000000;fill-opacity:1;fill-rule:evenodd;stroke:#000000;stroke-width:2;stroke-linecap:butt;stroke-linejoin:miter;stroke-miterlimit:10;stroke-opacity:1;stroke-dasharray:none" id="path3055" inkscape:connector-curvature="0"/><path d="m 720,-680 0,-80" style="fill:none;stroke:#000000;stroke-width:2;stroke-linecap:butt;stroke-linejoin:miter;stroke-miterlimit:10;stroke-opacity:1;stroke-dasharray:none" id="path3057" inkscape:connector-curvature="0"/><path d="m 760,-680 -40,-40" style="fill:none;stroke:#000000;stroke-width:2;stroke-linecap:butt;stroke-linejoin:miter;stroke-miterlimit:10;stroke-opacity:1;stroke-dasharray:none" id="path3059" inkscape:connector-curvature="0"/><path d="m 720,-720 40,-40" style="fill:none;stroke:#000000;stroke-width:2;stroke-linecap:butt;stroke-linejoin:miter;stroke-miterlimit:10;stroke-opacity:1;stroke-dasharray:none" id="path3061" inkscape:connector-curvature="0"/><path d="m 755,-635 10,0 0,-10 -10,0 0,10 z" style="fill:#000000;fill-opacity:1;fill-rule:evenodd;stroke:#000000;stroke-width:2;stroke-linecap:butt;stroke-linejoin:miter;stroke-miterlimit:10;stroke-opacity:1;stroke-dasharray:none" id="path3063" inkscape:connector-curvature="0"/><path d="m 760,-640 0,-40" style="fill:none;stroke:#000000;stroke-width:2;stroke-linecap:butt;stroke-linejoin:miter;stroke-miterlimit:10;stroke-opacity:1;stroke-dasharray:none" id="path3065" inkscape:connector-curvature="0"/><path d="m 675,-715 10,0 0,-10 -10,0 0,10 z" style="fill:#000000;fill-opacity:1;fill-rule:evenodd;stroke:#000000;stroke-width:2;stroke-linecap:butt;stroke-linejoin:miter;stroke-miterlimit:10;stroke-opacity:1;stroke-dasharray:none" id="path3067" inkscape:connector-curvature="0"/><path d="m 680,-720 40,0" style="fill:none;stroke:#000000;stroke-width:2;stroke-linecap:butt;stroke-linejoin:miter;stroke-miterlimit:10;stroke-opacity:1;stroke-dasharray:none" id="path3069" inkscape:connector-curvature="0"/><path d="m 755,-795 10,0 0,-10 -10,0 0,10 z" style="fill:#000000;fill-opacity:1;fill-rule:evenodd;stroke:#000000;stroke-width:2;stroke-linecap:butt;stroke-linejoin:miter;stroke-miterlimit:10;stroke-opacity:1;stroke-dasharray:none" id="path3071" inkscape:connector-curvature="0"/><path d="m 760,-800 0,40" style="fill:none;stroke:#000000;stroke-width:2;stroke-linecap:butt;stroke-linejoin:miter;stroke-miterlimit:10;stroke-opacity:1;stroke-dasharray:none" id="path3073" inkscape:connector-curvature="0"/><path d="m 1250,-510 20,0 -20,20 0,-20 z" style="fill:#000000;fill-opacity:1;fill-rule:evenodd;stroke:#000000;stroke-width:2;stroke-linecap:butt;stroke-linejoin:miter;stroke-miterlimit:10;stroke-opacity:1;stroke-dasharray:none" id="path3075" inkscape:connector-curvature="0"/><path d="m 1280,-480 -40,40" style="fill:none;stroke:#000000;stroke-width:2;stroke-linecap:butt;stroke-linejoin:miter;stroke-miterlimit:10;stroke-opacity:1;stroke-dasharray:none" id="path3077" inkscape:connector-curvature="0"/><path d="m 1280,-440 0,-80" style="fill:none;stroke:#000000;stroke-width:2;stroke-linecap:butt;stroke-linejoin:miter;stroke-miterlimit:10;stroke-opacity:1;stroke-dasharray:none" id="path3079" inkscape:connector-curvature="0"/><path d="m 1240,-520 40,40" style="fill:none;stroke:#000000;stroke-width:2;stroke-linecap:butt;stroke-linejoin:miter;stroke-miterlimit:10;stroke-opacity:1;stroke-dasharray:none" id="path3081" inkscape:connector-curvature="0"/><path d="m 1235,-395 10,0 0,-10 -10,0 0,10 z" style="fill:#000000;fill-opacity:1;fill-rule:evenodd;stroke:#000000;stroke-width:2;stroke-linecap:butt;stroke-linejoin:miter;stroke-miterlimit:10;stroke-opacity:1;stroke-dasharray:none" id="path3083" inkscape:connector-curvature="0"/><path d="m 1240,-400 0,-40" style="fill:none;stroke:#000000;stroke-width:2;stroke-linecap:butt;stroke-linejoin:miter;stroke-miterlimit:10;stroke-opacity:1;stroke-dasharray:none" id="path3085" inkscape:connector-curvature="0"/><path d="m 1235,-555 10,0 0,-10 -10,0 0,10 z" style="fill:#000000;fill-opacity:1;fill-rule:evenodd;stroke:#000000;stroke-width:2;stroke-linecap:butt;stroke-linejoin:miter;stroke-miterlimit:10;stroke-opacity:1;stroke-dasharray:none" id="path3087" inkscape:connector-curvature="0"/><path d="m 1240,-560 0,40" style="fill:none;stroke:#000000;stroke-width:2;stroke-linecap:butt;stroke-linejoin:miter;stroke-miterlimit:10;stroke-opacity:1;stroke-dasharray:none" id="path3089" inkscape:connector-curvature="0"/><path d="m 1355,-475 10,0 0,-10 -10,0 0,10 z" style="fill:#000000;fill-opacity:1;fill-rule:evenodd;stroke:#000000;stroke-width:2;stroke-linecap:butt;stroke-linejoin:miter;stroke-miterlimit:10;stroke-opacity:1;stroke-dasharray:none" id="path3091" inkscape:connector-curvature="0"/><path d="m 1360,-480 -80,0" style="fill:none;stroke:#000000;stroke-width:2;stroke-linecap:butt;stroke-linejoin:miter;stroke-miterlimit:10;stroke-opacity:1;stroke-dasharray:none" id="path3093" inkscape:connector-curvature="0"/><path d="m 1250,-750 20,0 -20,20 0,-20 z" style="fill:#000000;fill-opacity:1;fill-rule:evenodd;stroke:#000000;stroke-width:2;stroke-linecap:butt;stroke-linejoin:miter;stroke-miterlimit:10;stroke-opacity:1;stroke-dasharray:none" id="path3095" inkscape:connector-curvature="0"/><path d="m 1280,-720 -40,40" style="fill:none;stroke:#000000;stroke-width:2;stroke-linecap:butt;stroke-linejoin:miter;stroke-miterlimit:10;stroke-opacity:1;stroke-dasharray:none" id="path3097" inkscape:connector-curvature="0"/><path d="m 1280,-680 0,-80" style="fill:none;stroke:#000000;stroke-width:2;stroke-linecap:butt;stroke-linejoin:miter;stroke-miterlimit:10;stroke-opacity:1;stroke-dasharray:none" id="path3099" inkscape:connector-curvature="0"/><path d="m 1240,-760 40,40" style="fill:none;stroke:#000000;stroke-width:2;stroke-linecap:butt;stroke-linejoin:miter;stroke-miterlimit:10;stroke-opacity:1;stroke-dasharray:none" id="path3101" inkscape:connector-curvature="0"/><path d="m 1235,-635 10,0 0,-10 -10,0 0,10 z" style="fill:#000000;fill-opacity:1;fill-rule:evenodd;stroke:#000000;stroke-width:2;stroke-linecap:butt;stroke-linejoin:miter;stroke-miterlimit:10;stroke-opacity:1;stroke-dasharray:none" id="path3103" inkscape:connector-curvature="0"/><path d="m 1240,-640 0,-40" style="fill:none;stroke:#000000;stroke-width:2;stroke-linecap:butt;stroke-linejoin:miter;stroke-miterlimit:10;stroke-opacity:1;stroke-dasharray:none" id="path3105" inkscape:connector-curvature="0"/><path d="m 1235,-795 10,0 0,-10 -10,0 0,10 z" style="fill:#000000;fill-opacity:1;fill-rule:evenodd;stroke:#000000;stroke-width:2;stroke-linecap:butt;stroke-linejoin:miter;stroke-miterlimit:10;stroke-opacity:1;stroke-dasharray:none" id="path3107" inkscape:connector-curvature="0"/><path d="m 1240,-800 0,40" style="fill:none;stroke:#000000;stroke-width:2;stroke-linecap:butt;stroke-linejoin:miter;stroke-miterlimit:10;stroke-opacity:1;stroke-dasharray:none" id="path3109" inkscape:connector-curvature="0"/><path d="m 1355,-715 10,0 0,-10 -10,0 0,10 z" style="fill:#000000;fill-opacity:1;fill-rule:evenodd;stroke:#000000;stroke-width:2;stroke-linecap:butt;stroke-linejoin:miter;stroke-miterlimit:10;stroke-opacity:1;stroke-dasharray:none" id="path3111" inkscape:connector-curvature="0"/><path d="m 1360,-720 -80,0" style="fill:none;stroke:#000000;stroke-width:2;stroke-linecap:butt;stroke-linejoin:miter;stroke-miterlimit:10;stroke-opacity:1;stroke-dasharray:none" id="path3113" inkscape:connector-curvature="0"/><path d="m 780,-480 40,0" style="fill:none;stroke:#000000;stroke-width:2;stroke-linecap:butt;stroke-linejoin:miter;stroke-miterlimit:10;stroke-opacity:1;stroke-dasharray:none" id="path3115" inkscape:connector-curvature="0"/><path d="m 820,-480 -20,40" style="fill:none;stroke:#000000;stroke-width:2;stroke-linecap:butt;stroke-linejoin:miter;stroke-miterlimit:10;stroke-opacity:1;stroke-dasharray:none" id="path3117" inkscape:connector-curvature="0"/><path d="m 800,-440 -20,-40" style="fill:none;stroke:#000000;stroke-width:2;stroke-linecap:butt;stroke-linejoin:miter;stroke-miterlimit:10;stroke-opacity:1;stroke-dasharray:none" id="path3119" inkscape:connector-curvature="0"/><path d="m 780,-440 40,0" style="fill:none;stroke:#000000;stroke-width:2;stroke-linecap:butt;stroke-linejoin:miter;stroke-miterlimit:10;stroke-opacity:1;stroke-dasharray:none" id="path3121" inkscape:connector-curvature="0"/><path d="m 795,-555 10,0 0,-10 -10,0 0,10 z" style="fill:#000000;fill-opacity:1;fill-rule:evenodd;stroke:#000000;stroke-width:2;stroke-linecap:butt;stroke-linejoin:miter;stroke-miterlimit:10;stroke-opacity:1;stroke-dasharray:none" id="path3123" inkscape:connector-curvature="0"/><path d="m 800,-560 0,80" style="fill:none;stroke:#000000;stroke-width:2;stroke-linecap:butt;stroke-linejoin:miter;stroke-miterlimit:10;stroke-opacity:1;stroke-dasharray:none" id="path3125" inkscape:connector-curvature="0"/><path d="m 795,-355 10,0 0,-10 -10,0 0,10 z" style="fill:#000000;fill-opacity:1;fill-rule:evenodd;stroke:#000000;stroke-width:2;stroke-linecap:butt;stroke-linejoin:miter;stroke-miterlimit:10;stroke-opacity:1;stroke-dasharray:none" id="path3127" inkscape:connector-curvature="0"/><path d="m 800,-360 0,-80" style="fill:none;stroke:#000000;stroke-width:2;stroke-linecap:butt;stroke-linejoin:miter;stroke-miterlimit:10;stroke-opacity:1;stroke-dasharray:none" id="path3129" inkscape:connector-curvature="0"/><path d="m 1180,-480 40,0" style="fill:none;stroke:#000000;stroke-width:2;stroke-linecap:butt;stroke-linejoin:miter;stroke-miterlimit:10;stroke-opacity:1;stroke-dasharray:none" id="path3131" inkscape:connector-curvature="0"/><path d="m 1220,-480 -20,40" style="fill:none;stroke:#000000;stroke-width:2;stroke-linecap:butt;stroke-linejoin:miter;stroke-miterlimit:10;stroke-opacity:1;stroke-dasharray:none" id="path3133" inkscape:connector-curvature="0"/><path d="m 1200,-440 -20,-40" style="fill:none;stroke:#000000;stroke-width:2;stroke-linecap:butt;stroke-linejoin:miter;stroke-miterlimit:10;stroke-opacity:1;stroke-dasharray:none" id="path3135" inkscape:connector-curvature="0"/><path d="m 1180,-440 40,0" style="fill:none;stroke:#000000;stroke-width:2;stroke-linecap:butt;stroke-linejoin:miter;stroke-miterlimit:10;stroke-opacity:1;stroke-dasharray:none" id="path3137" inkscape:connector-curvature="0"/><path d="m 1195,-555 10,0 0,-10 -10,0 0,10 z" style="fill:#000000;fill-opacity:1;fill-rule:evenodd;stroke:#000000;stroke-width:2;stroke-linecap:butt;stroke-linejoin:miter;stroke-miterlimit:10;stroke-opacity:1;stroke-dasharray:none" id="path3139" inkscape:connector-curvature="0"/><path d="m 1200,-560 0,80" style="fill:none;stroke:#000000;stroke-width:2;stroke-linecap:butt;stroke-linejoin:miter;stroke-miterlimit:10;stroke-opacity:1;stroke-dasharray:none" id="path3141" inkscape:connector-curvature="0"/><path d="m 1195,-355 10,0 0,-10 -10,0 0,10 z" style="fill:#000000;fill-opacity:1;fill-rule:evenodd;stroke:#000000;stroke-width:2;stroke-linecap:butt;stroke-linejoin:miter;stroke-miterlimit:10;stroke-opacity:1;stroke-dasharray:none" id="path3143" inkscape:connector-curvature="0"/><path d="m 1200,-360 0,-80" style="fill:none;stroke:#000000;stroke-width:2;stroke-linecap:butt;stroke-linejoin:miter;stroke-miterlimit:10;stroke-opacity:1;stroke-dasharray:none" id="path3145" inkscape:connector-curvature="0"/><path d="m 780,-720 40,0" style="fill:none;stroke:#000000;stroke-width:2;stroke-linecap:butt;stroke-linejoin:miter;stroke-miterlimit:10;stroke-opacity:1;stroke-dasharray:none" id="path3147" inkscape:connector-curvature="0"/><path d="m 820,-720 -20,40" style="fill:none;stroke:#000000;stroke-width:2;stroke-linecap:butt;stroke-linejoin:miter;stroke-miterlimit:10;stroke-opacity:1;stroke-dasharray:none" id="path3149" inkscape:connector-curvature="0"/><path d="m 800,-680 -20,-40" style="fill:none;stroke:#000000;stroke-width:2;stroke-linecap:butt;stroke-linejoin:miter;stroke-miterlimit:10;stroke-opacity:1;stroke-dasharray:none" id="path3151" inkscape:connector-curvature="0"/><path d="m 780,-680 40,0" style="fill:none;stroke:#000000;stroke-width:2;stroke-linecap:butt;stroke-linejoin:miter;stroke-miterlimit:10;stroke-opacity:1;stroke-dasharray:none" id="path3153" inkscape:connector-curvature="0"/><path d="m 795,-795 10,0 0,-10 -10,0 0,10 z" style="fill:#000000;fill-opacity:1;fill-rule:evenodd;stroke:#000000;stroke-width:2;stroke-linecap:butt;stroke-linejoin:miter;stroke-miterlimit:10;stroke-opacity:1;stroke-dasharray:none" id="path3155" inkscape:connector-curvature="0"/><path d="m 800,-800 0,80" style="fill:none;stroke:#000000;stroke-width:2;stroke-linecap:butt;stroke-linejoin:miter;stroke-miterlimit:10;stroke-opacity:1;stroke-dasharray:none" id="path3157" inkscape:connector-curvature="0"/><path d="m 795,-595 10,0 0,-10 -10,0 0,10 z" style="fill:#000000;fill-opacity:1;fill-rule:evenodd;stroke:#000000;stroke-width:2;stroke-linecap:butt;stroke-linejoin:miter;stroke-miterlimit:10;stroke-opacity:1;stroke-dasharray:none" id="path3159" inkscape:connector-curvature="0"/><path d="m 800,-600 0,-80" style="fill:none;stroke:#000000;stroke-width:2;stroke-linecap:butt;stroke-linejoin:miter;stroke-miterlimit:10;stroke-opacity:1;stroke-dasharray:none" id="path3161" inkscape:connector-curvature="0"/><path d="m 1180,-720 40,0" style="fill:none;stroke:#000000;stroke-width:2;stroke-linecap:butt;stroke-linejoin:miter;stroke-miterlimit:10;stroke-opacity:1;stroke-dasharray:none" id="path3163" inkscape:connector-curvature="0"/><path d="m 1220,-720 -20,40" style="fill:none;stroke:#000000;stroke-width:2;stroke-linecap:butt;stroke-linejoin:miter;stroke-miterlimit:10;stroke-opacity:1;stroke-dasharray:none" id="path3165" inkscape:connector-curvature="0"/><path d="m 1200,-680 -20,-40" style="fill:none;stroke:#000000;stroke-width:2;stroke-linecap:butt;stroke-linejoin:miter;stroke-miterlimit:10;stroke-opacity:1;stroke-dasharray:none" id="path3167" inkscape:connector-curvature="0"/><path d="m 1180,-680 40,0" style="fill:none;stroke:#000000;stroke-width:2;stroke-linecap:butt;stroke-linejoin:miter;stroke-miterlimit:10;stroke-opacity:1;stroke-dasharray:none" id="path3169" inkscape:connector-curvature="0"/><path d="m 1195,-795 10,0 0,-10 -10,0 0,10 z" style="fill:#000000;fill-opacity:1;fill-rule:evenodd;stroke:#000000;stroke-width:2;stroke-linecap:butt;stroke-linejoin:miter;stroke-miterlimit:10;stroke-opacity:1;stroke-dasharray:none" id="path3171" inkscape:connector-curvature="0"/><path d="m 1200,-800 0,80" style="fill:none;stroke:#000000;stroke-width:2;stroke-linecap:butt;stroke-linejoin:miter;stroke-miterlimit:10;stroke-opacity:1;stroke-dasharray:none" id="path3173" inkscape:connector-curvature="0"/><path d="m 1195,-595 10,0 0,-10 -10,0 0,10 z" style="fill:#000000;fill-opacity:1;fill-rule:evenodd;stroke:#000000;stroke-width:2;stroke-linecap:butt;stroke-linejoin:miter;stroke-miterlimit:10;stroke-opacity:1;stroke-dasharray:none" id="path3175" inkscape:connector-curvature="0"/><path d="m 1200,-600 0,-80" style="fill:none;stroke:#000000;stroke-width:2;stroke-linecap:butt;stroke-linejoin:miter;stroke-miterlimit:10;stroke-opacity:1;stroke-dasharray:none" id="path3177" inkscape:connector-curvature="0"/><path d="m 1520,-940 80,0" style="fill:none;stroke:#000000;stroke-width:2;stroke-linecap:butt;stroke-linejoin:miter;stroke-miterlimit:10;stroke-opacity:1;stroke-dasharray:none" id="path3179" inkscape:connector-curvature="0"/><path d="m 1540,-940 -10,-20" style="fill:none;stroke:#000000;stroke-width:2;stroke-linecap:butt;stroke-linejoin:miter;stroke-miterlimit:10;stroke-opacity:1;stroke-dasharray:none" id="path3181" inkscape:connector-curvature="0"/><path d="m 1550,-940 -10,-20" style="fill:none;stroke:#000000;stroke-width:2;stroke-linecap:butt;stroke-linejoin:miter;stroke-miterlimit:10;stroke-opacity:1;stroke-dasharray:none" id="path3183" inkscape:connector-curvature="0"/><path d="m 1560,-940 -10,-20" style="fill:none;stroke:#000000;stroke-width:2;stroke-linecap:butt;stroke-linejoin:miter;stroke-miterlimit:10;stroke-opacity:1;stroke-dasharray:none" id="path3185" inkscape:connector-curvature="0"/><path d="m 1570,-940 -10,-20" style="fill:none;stroke:#000000;stroke-width:2;stroke-linecap:butt;stroke-linejoin:miter;stroke-miterlimit:10;stroke-opacity:1;stroke-dasharray:none" id="path3187" inkscape:connector-curvature="0"/><path d="m 1580,-940 -10,-20" style="fill:none;stroke:#000000;stroke-width:2;stroke-linecap:butt;stroke-linejoin:miter;stroke-miterlimit:10;stroke-opacity:1;stroke-dasharray:none" id="path3189" inkscape:connector-curvature="0"/><path d="m 1555,-895 10,0 0,-10 -10,0 0,10 z" style="fill:#000000;fill-opacity:1;fill-rule:evenodd;stroke:#000000;stroke-width:2;stroke-linecap:butt;stroke-linejoin:miter;stroke-miterlimit:10;stroke-opacity:1;stroke-dasharray:none" id="path3191" inkscape:connector-curvature="0"/><path d="m 1560,-900 0,-40" style="fill:none;stroke:#000000;stroke-width:2;stroke-linecap:butt;stroke-linejoin:miter;stroke-miterlimit:10;stroke-opacity:1;stroke-dasharray:none" id="path3193" inkscape:connector-curvature="0"/><path d="m 880,-620 80,0" style="fill:none;stroke:#000000;stroke-width:2;stroke-linecap:butt;stroke-linejoin:miter;stroke-miterlimit:10;stroke-opacity:1;stroke-dasharray:none" id="path3195" inkscape:connector-curvature="0"/><path d="m 960,-620 0,40" style="fill:none;stroke:#000000;stroke-width:2;stroke-linecap:butt;stroke-linejoin:miter;stroke-miterlimit:10;stroke-opacity:1;stroke-dasharray:none" id="path3197" inkscape:connector-curvature="0"/><path d="m 880,-620 0,40" style="fill:none;stroke:#000000;stroke-width:2;stroke-linecap:butt;stroke-linejoin:miter;stroke-miterlimit:10;stroke-opacity:1;stroke-dasharray:none" id="path3199" inkscape:connector-curvature="0"/><path d="m 880,-580 80,0" style="fill:none;stroke:#000000;stroke-width:2;stroke-linecap:butt;stroke-linejoin:miter;stroke-miterlimit:10;stroke-opacity:1;stroke-dasharray:none" id="path3201" inkscape:connector-curvature="0"/><path d="m 995,-595 10,0 0,-10 -10,0 0,10 z" style="fill:#000000;fill-opacity:1;fill-rule:evenodd;stroke:#000000;stroke-width:2;stroke-linecap:butt;stroke-linejoin:miter;stroke-miterlimit:10;stroke-opacity:1;stroke-dasharray:none" id="path3203" inkscape:connector-curvature="0"/><path d="m 1000,-600 -40,0" style="fill:none;stroke:#000000;stroke-width:2;stroke-linecap:butt;stroke-linejoin:miter;stroke-miterlimit:10;stroke-opacity:1;stroke-dasharray:none" id="path3205" inkscape:connector-curvature="0"/><path d="m 835,-595 10,0 0,-10 -10,0 0,10 z" style="fill:#000000;fill-opacity:1;fill-rule:evenodd;stroke:#000000;stroke-width:2;stroke-linecap:butt;stroke-linejoin:miter;stroke-miterlimit:10;stroke-opacity:1;stroke-dasharray:none" id="path3207" inkscape:connector-curvature="0"/><path d="m 840,-600 40,0" style="fill:none;stroke:#000000;stroke-width:2;stroke-linecap:butt;stroke-linejoin:miter;stroke-miterlimit:10;stroke-opacity:1;stroke-dasharray:none" id="path3209" inkscape:connector-curvature="0"/><path d="m 1120,-600 -10,0" style="fill:none;stroke:#000000;stroke-width:2;stroke-linecap:butt;stroke-linejoin:miter;stroke-miterlimit:10;stroke-opacity:1;stroke-dasharray:none" id="path3211" inkscape:connector-curvature="0"/><path d="m 1090,-600 -10,0" style="fill:none;stroke:#000000;stroke-width:2;stroke-linecap:butt;stroke-linejoin:miter;stroke-miterlimit:10;stroke-opacity:1;stroke-dasharray:none" id="path3213" inkscape:connector-curvature="0"/><path d="m 1090,-640 0,80" style="fill:none;stroke:#000000;stroke-width:2;stroke-linecap:butt;stroke-linejoin:miter;stroke-miterlimit:10;stroke-opacity:1;stroke-dasharray:none" id="path3215" inkscape:connector-curvature="0"/><path d="m 1110,-640 0,80" style="fill:none;stroke:#000000;stroke-width:2;stroke-linecap:butt;stroke-linejoin:miter;stroke-miterlimit:10;stroke-opacity:1;stroke-dasharray:none" id="path3217" inkscape:connector-curvature="0"/><path d="m 1035,-595 10,0 0,-10 -10,0 0,10 z" style="fill:#000000;fill-opacity:1;fill-rule:evenodd;stroke:#000000;stroke-width:2;stroke-linecap:butt;stroke-linejoin:miter;stroke-miterlimit:10;stroke-opacity:1;stroke-dasharray:none" id="path3219" inkscape:connector-curvature="0"/><path d="m 1040,-600 40,0" style="fill:none;stroke:#000000;stroke-width:2;stroke-linecap:butt;stroke-linejoin:miter;stroke-miterlimit:10;stroke-opacity:1;stroke-dasharray:none" id="path3221" inkscape:connector-curvature="0"/><path d="m 1155,-595 10,0 0,-10 -10,0 0,10 z" style="fill:#000000;fill-opacity:1;fill-rule:evenodd;stroke:#000000;stroke-width:2;stroke-linecap:butt;stroke-linejoin:miter;stroke-miterlimit:10;stroke-opacity:1;stroke-dasharray:none" id="path3223" inkscape:connector-curvature="0"/><path d="m 1160,-600 -40,0" style="fill:none;stroke:#000000;stroke-width:2;stroke-linecap:butt;stroke-linejoin:miter;stroke-miterlimit:10;stroke-opacity:1;stroke-dasharray:none" id="path3225" inkscape:connector-curvature="0"/><path d="m 360,-820 0,-75" style="fill:none;stroke:#000000;stroke-width:2;stroke-linecap:butt;stroke-linejoin:miter;stroke-miterlimit:10;stroke-opacity:1;stroke-dasharray:none" id="path3227" inkscape:connector-curvature="0"/><path d="m 360,-895 0,-5" style="fill:none;stroke:#000000;stroke-width:2;stroke-linecap:butt;stroke-linejoin:miter;stroke-miterlimit:10;stroke-opacity:1;stroke-dasharray:none" id="path3229" inkscape:connector-curvature="0"/><path d="m 360,-820 80,-40" style="fill:none;stroke:#000000;stroke-width:2;stroke-linecap:butt;stroke-linejoin:miter;stroke-miterlimit:10;stroke-opacity:1;stroke-dasharray:none" id="path3231" inkscape:connector-curvature="0"/><path d="m 360,-900 80,40" style="fill:none;stroke:#000000;stroke-width:2;stroke-linecap:butt;stroke-linejoin:miter;stroke-miterlimit:10;stroke-opacity:1;stroke-dasharray:none" id="path3233" inkscape:connector-curvature="0"/><path d="m 449.501,-859.999 c 0,2.4853 -2.0147,4.5 -4.5,4.5 -2.4853,0 -4.5,-2.0147 -4.5,-4.5 0,-2.4853 2.0147,-4.5 4.5,-4.5 2.4853,0 4.5,2.0147 4.5,4.5 z" style="fill:none;stroke:#000000;stroke-width:2;stroke-linecap:butt;stroke-linejoin:miter;stroke-miterlimit:10;stroke-opacity:1;stroke-dasharray:none" id="path3235" inkscape:connector-curvature="0"/><path d="m 315,-855 10,0 0,-10 -10,0 0,10 z" style="fill:#000000;fill-opacity:1;fill-rule:evenodd;stroke:#000000;stroke-width:2;stroke-linecap:butt;stroke-linejoin:miter;stroke-miterlimit:10;stroke-opacity:1;stroke-dasharray:none" id="path3237" inkscape:connector-curvature="0"/><path d="m 320,-860 40,0" style="fill:none;stroke:#000000;stroke-width:2;stroke-linecap:butt;stroke-linejoin:miter;stroke-miterlimit:10;stroke-opacity:1;stroke-dasharray:none" id="path3239" inkscape:connector-curvature="0"/><path d="m 475,-855 10,0 0,-10 -10,0 0,10 z" style="fill:#000000;fill-opacity:1;fill-rule:evenodd;stroke:#000000;stroke-width:2;stroke-linecap:butt;stroke-linejoin:miter;stroke-miterlimit:10;stroke-opacity:1;stroke-dasharray:none" id="path3241" inkscape:connector-curvature="0"/><path d="m 480,-860 -40,0" style="fill:none;stroke:#000000;stroke-width:2;stroke-linecap:butt;stroke-linejoin:miter;stroke-miterlimit:10;stroke-opacity:1;stroke-dasharray:none" id="path3243" inkscape:connector-curvature="0"/><path d="m 1840,-560 0,-80" style="fill:none;stroke:#000000;stroke-width:2;stroke-linecap:butt;stroke-linejoin:miter;stroke-miterlimit:10;stroke-opacity:1;stroke-dasharray:none" id="path3245" inkscape:connector-curvature="0"/><path d="m 1840,-560 10,-20" style="fill:none;stroke:#000000;stroke-width:2;stroke-linecap:butt;stroke-linejoin:miter;stroke-miterlimit:10;stroke-opacity:1;stroke-dasharray:none" id="path3247" inkscape:connector-curvature="0"/><path d="m 1840,-560 -10,-20" style="fill:none;stroke:#000000;stroke-width:2;stroke-linecap:butt;stroke-linejoin:miter;stroke-miterlimit:10;stroke-opacity:1;stroke-dasharray:none" id="path3249" inkscape:connector-curvature="0"/><path d="m 1830,-580 20,0" style="fill:none;stroke:#000000;stroke-width:2;stroke-linecap:butt;stroke-linejoin:miter;stroke-miterlimit:10;stroke-opacity:1;stroke-dasharray:none" id="path3251" inkscape:connector-curvature="0"/><path d="m 1840,-550 0,30" style="fill:none;stroke:#000000;stroke-width:2;stroke-linecap:butt;stroke-linejoin:miter;stroke-miterlimit:10;stroke-opacity:1;stroke-dasharray:none" id="path3253" inkscape:connector-curvature="0"/><path d="m 1840,-650 0,-30" style="fill:none;stroke:#000000;stroke-width:2;stroke-linecap:butt;stroke-linejoin:miter;stroke-miterlimit:10;stroke-opacity:1;stroke-dasharray:none" id="path3255" inkscape:connector-curvature="0"/><path d="m 1889.501,-599.999 c 0,27.3381 -22.162,49.5 -49.5,49.5 -27.338,0 -49.5,-22.1619 -49.5,-49.5 0,-27.3381 22.162,-49.5 49.5,-49.5 27.338,0 49.5,22.1619 49.5,49.5 z" style="fill:none;stroke:#000000;stroke-width:2;stroke-linecap:butt;stroke-linejoin:miter;stroke-miterlimit:10;stroke-opacity:1;stroke-dasharray:none" id="path3257" inkscape:connector-curvature="0"/><path d="m 1835,-515 10,0 0,-10 -10,0 0,10 z" style="fill:#000000;fill-opacity:1;fill-rule:evenodd;stroke:#000000;stroke-width:2;stroke-linecap:butt;stroke-linejoin:miter;stroke-miterlimit:10;stroke-opacity:1;stroke-dasharray:none" id="path3259" inkscape:connector-curvature="0"/><path d="m 1840,-520 0,0" style="fill:none;stroke:#000000;stroke-width:2;stroke-linecap:butt;stroke-linejoin:miter;stroke-miterlimit:10;stroke-opacity:1;stroke-dasharray:none" id="path3261" inkscape:connector-curvature="0"/><path d="m 1835,-675 10,0 0,-10 -10,0 0,10 z" style="fill:#000000;fill-opacity:1;fill-rule:evenodd;stroke:#000000;stroke-width:2;stroke-linecap:butt;stroke-linejoin:miter;stroke-miterlimit:10;stroke-opacity:1;stroke-dasharray:none" id="path3263" inkscape:connector-curvature="0"/><path d="m 1840,-680 0,0" style="fill:none;stroke:#000000;stroke-width:2;stroke-linecap:butt;stroke-linejoin:miter;stroke-miterlimit:10;stroke-opacity:1;stroke-dasharray:none" id="path3265" inkscape:connector-curvature="0"/><path d="m 760,-560 0,-80" style="fill:none;stroke:#000000;stroke-width:2;stroke-linecap:butt;stroke-linejoin:miter;stroke-miterlimit:10;stroke-opacity:1;stroke-dasharray:none" id="path3267" inkscape:connector-curvature="0"/><path d="m 800,-560 0,-40" style="fill:none;stroke:#000000;stroke-width:2;stroke-linecap:butt;stroke-linejoin:miter;stroke-miterlimit:10;stroke-opacity:1;stroke-dasharray:none" id="path3269" inkscape:connector-curvature="0"/><path d="m 1200,-560 0,-40" style="fill:none;stroke:#000000;stroke-width:2;stroke-linecap:butt;stroke-linejoin:miter;stroke-miterlimit:10;stroke-opacity:1;stroke-dasharray:none" id="path3271" inkscape:connector-curvature="0"/><path d="m 1240,-560 0,-80" style="fill:none;stroke:#000000;stroke-width:2;stroke-linecap:butt;stroke-linejoin:miter;stroke-miterlimit:10;stroke-opacity:1;stroke-dasharray:none" id="path3273" inkscape:connector-curvature="0"/><path d="m 760,-400 0,40" style="fill:none;stroke:#000000;stroke-width:2;stroke-linecap:butt;stroke-linejoin:miter;stroke-miterlimit:10;stroke-opacity:1;stroke-dasharray:none" id="path3275" inkscape:connector-curvature="0"/><path d="m 760,-360 1080,0" style="fill:none;stroke:#000000;stroke-width:2;stroke-linecap:butt;stroke-linejoin:miter;stroke-miterlimit:10;stroke-opacity:1;stroke-dasharray:none" id="path3277" inkscape:connector-curvature="0"/><path d="m 1240,-360 0,-40" style="fill:none;stroke:#000000;stroke-width:2;stroke-linecap:butt;stroke-linejoin:miter;stroke-miterlimit:10;stroke-opacity:1;stroke-dasharray:none" id="path3279" inkscape:connector-curvature="0"/><path d="m 760,-800 0,-80" style="fill:none;stroke:#000000;stroke-width:2;stroke-linecap:butt;stroke-linejoin:miter;stroke-miterlimit:10;stroke-opacity:1;stroke-dasharray:none" id="path3281" inkscape:connector-curvature="0"/><path d="m 760,-880 1080,0" style="fill:none;stroke:#000000;stroke-width:2;stroke-linecap:butt;stroke-linejoin:miter;stroke-miterlimit:10;stroke-opacity:1;stroke-dasharray:none" id="path3283" inkscape:connector-curvature="0"/><path d="m 800,-800 -40,0" style="fill:none;stroke:#000000;stroke-width:2;stroke-linecap:butt;stroke-linejoin:miter;stroke-miterlimit:10;stroke-opacity:1;stroke-dasharray:none" id="path3285" inkscape:connector-curvature="0"/><path d="m 1200,-800 40,0" style="fill:none;stroke:#000000;stroke-width:2;stroke-linecap:butt;stroke-linejoin:miter;stroke-miterlimit:10;stroke-opacity:1;stroke-dasharray:none" id="path3287" inkscape:connector-curvature="0"/><path d="m 1240,-800 0,-80" style="fill:none;stroke:#000000;stroke-width:2;stroke-linecap:butt;stroke-linejoin:miter;stroke-miterlimit:10;stroke-opacity:1;stroke-dasharray:none" id="path3289" inkscape:connector-curvature="0"/><path d="m 1560,-880 0,-20" style="fill:none;stroke:#000000;stroke-width:2;stroke-linecap:butt;stroke-linejoin:miter;stroke-miterlimit:10;stroke-opacity:1;stroke-dasharray:none" id="path3291" inkscape:connector-curvature="0"/><path d="m 800,-600 40,0" style="fill:none;stroke:#000000;stroke-width:2;stroke-linecap:butt;stroke-linejoin:miter;stroke-miterlimit:10;stroke-opacity:1;stroke-dasharray:none" id="path3293" inkscape:connector-curvature="0"/><path d="m 1000,-600 40,0" style="fill:none;stroke:#000000;stroke-width:2;stroke-linecap:butt;stroke-linejoin:miter;stroke-miterlimit:10;stroke-opacity:1;stroke-dasharray:none" id="path3295" inkscape:connector-curvature="0"/><path d="m 1160,-600 40,0" style="fill:none;stroke:#000000;stroke-width:2;stroke-linecap:butt;stroke-linejoin:miter;stroke-miterlimit:10;stroke-opacity:1;stroke-dasharray:none" id="path3297" inkscape:connector-curvature="0"/><path d="m 280,-720 400,0" style="fill:none;stroke:#000000;stroke-width:2;stroke-linecap:butt;stroke-linejoin:miter;stroke-miterlimit:10;stroke-opacity:1;stroke-dasharray:none" id="path3299" inkscape:connector-curvature="0"/><path d="m 600,-720 0,-240" style="fill:none;stroke:#000000;stroke-width:2;stroke-linecap:butt;stroke-linejoin:miter;stroke-miterlimit:10;stroke-opacity:1;stroke-dasharray:none" id="path3301" inkscape:connector-curvature="0"/><path d="m 600,-960 880,0" style="fill:none;stroke:#000000;stroke-width:2;stroke-linecap:butt;stroke-linejoin:miter;stroke-miterlimit:10;stroke-opacity:1;stroke-dasharray:none" id="path3303" inkscape:connector-curvature="0"/><path d="m 1480,-960 0,480" style="fill:none;stroke:#000000;stroke-width:2;stroke-linecap:butt;stroke-linejoin:miter;stroke-miterlimit:10;stroke-opacity:1;stroke-dasharray:none" id="path3305" inkscape:connector-curvature="0"/><path d="m 1480,-480 -120,0" style="fill:none;stroke:#000000;stroke-width:2;stroke-linecap:butt;stroke-linejoin:miter;stroke-miterlimit:10;stroke-opacity:1;stroke-dasharray:none" id="path3307" inkscape:connector-curvature="0"/><path d="m 320,-720 0,-140" style="fill:none;stroke:#000000;stroke-width:2;stroke-linecap:butt;stroke-linejoin:miter;stroke-miterlimit:10;stroke-opacity:1;stroke-dasharray:none" id="path3309" inkscape:connector-curvature="0"/><path d="m 480,-860 0,380" style="fill:none;stroke:#000000;stroke-width:2;stroke-linecap:butt;stroke-linejoin:miter;stroke-miterlimit:10;stroke-opacity:1;stroke-dasharray:none" id="path3311" inkscape:connector-curvature="0"/><path d="m 480,-480 200,0" style="fill:none;stroke:#000000;stroke-width:2;stroke-linecap:butt;stroke-linejoin:miter;stroke-miterlimit:10;stroke-opacity:1;stroke-dasharray:none" id="path3313" inkscape:connector-curvature="0"/><path d="m 480,-860 0,-180" style="fill:none;stroke:#000000;stroke-width:2;stroke-linecap:butt;stroke-linejoin:miter;stroke-miterlimit:10;stroke-opacity:1;stroke-dasharray:none" id="path3315" inkscape:connector-curvature="0"/><path d="m 480,-1040 880,0" style="fill:none;stroke:#000000;stroke-width:2;stroke-linecap:butt;stroke-linejoin:miter;stroke-miterlimit:10;stroke-opacity:1;stroke-dasharray:none" id="path3317" inkscape:connector-curvature="0"/><path d="m 1360,-1040 0,320" style="fill:none;stroke:#000000;stroke-width:2;stroke-linecap:butt;stroke-linejoin:miter;stroke-miterlimit:10;stroke-opacity:1;stroke-dasharray:none" id="path3319" inkscape:connector-curvature="0"/><path d="m 1840,-360 0,-160" style="fill:none;stroke:#000000;stroke-width:2;stroke-linecap:butt;stroke-linejoin:miter;stroke-miterlimit:10;stroke-opacity:1;stroke-dasharray:none" id="path3321" inkscape:connector-curvature="0"/><path d="m 1840,-680 0,-200" style="fill:none;stroke:#000000;stroke-width:2;stroke-linecap:butt;stroke-linejoin:miter;stroke-miterlimit:10;stroke-opacity:1;stroke-dasharray:none" id="path3323" inkscape:connector-curvature="0"/><path d="m 760,-600 40,0" style="fill:none;stroke:#000000;stroke-width:2;stroke-linecap:butt;stroke-linejoin:miter;stroke-miterlimit:10;stroke-opacity:1;stroke-dasharray:none" id="path3325" inkscape:connector-curvature="0"/><path d="m 1200,-600 40,0" style="fill:none;stroke:#000000;stroke-width:2;stroke-linecap:butt;stroke-linejoin:miter;stroke-miterlimit:10;stroke-opacity:1;stroke-dasharray:none" id="path3327" inkscape:connector-curvature="0"/><path d="m 1244.501,-359.999 c 0,2.4853 -2.015,4.5 -4.5,4.5 -2.485,0 -4.5,-2.0147 -4.5,-4.5 0,-2.4853 2.015,-4.5 4.5,-4.5 2.485,0 4.5,2.0147 4.5,4.5 z" style="fill:#000000;fill-opacity:1;fill-rule:evenodd;stroke:#000000;stroke-width:0.5;stroke-linecap:round;stroke-linejoin:round;stroke-miterlimit:10;stroke-opacity:1;stroke-dasharray:none" id="path3329" inkscape:connector-curvature="0"/><path d="m 1244.501,-879.999 c 0,2.4853 -2.015,4.5 -4.5,4.5 -2.485,0 -4.5,-2.0147 -4.5,-4.5 0,-2.4853 2.015,-4.5 4.5,-4.5 2.485,0 4.5,2.0147 4.5,4.5 z" style="fill:#000000;fill-opacity:1;fill-rule:evenodd;stroke:#000000;stroke-width:0.5;stroke-linecap:round;stroke-linejoin:round;stroke-miterlimit:10;stroke-opacity:1;stroke-dasharray:none" id="path3331" inkscape:connector-curvature="0"/><path d="m 1564.501,-879.999 c 0,2.4853 -2.015,4.5 -4.5,4.5 -2.485,0 -4.5,-2.0147 -4.5,-4.5 0,-2.4853 2.015,-4.5 4.5,-4.5 2.485,0 4.5,2.0147 4.5,4.5 z" style="fill:#000000;fill-opacity:1;fill-rule:evenodd;stroke:#000000;stroke-width:0.5;stroke-linecap:round;stroke-linejoin:round;stroke-miterlimit:10;stroke-opacity:1;stroke-dasharray:none" id="path3333" inkscape:connector-curvature="0"/><path d="m 284.501,-719.999 c 0,2.4853 -2.0147,4.5 -4.5,4.5 -2.4853,0 -4.5,-2.0147 -4.5,-4.5 0,-2.4853 2.0147,-4.5 4.5,-4.5 2.4853,0 4.5,2.0147 4.5,4.5 z" style="fill:#000000;fill-opacity:1;fill-rule:evenodd;stroke:#000000;stroke-width:0.5;stroke-linecap:round;stroke-linejoin:round;stroke-miterlimit:10;stroke-opacity:1;stroke-dasharray:none" id="path3335" inkscape:connector-curvature="0"/><path d="m 604.501,-719.999 c 0,2.4853 -2.0147,4.5 -4.5,4.5 -2.4853,0 -4.5,-2.0147 -4.5,-4.5 0,-2.4853 2.0147,-4.5 4.5,-4.5 2.4853,0 4.5,2.0147 4.5,4.5 z" style="fill:#000000;fill-opacity:1;fill-rule:evenodd;stroke:#000000;stroke-width:0.5;stroke-linecap:round;stroke-linejoin:round;stroke-miterlimit:10;stroke-opacity:1;stroke-dasharray:none" id="path3337" inkscape:connector-curvature="0"/><path d="m 324.501,-719.999 c 0,2.4853 -2.0147,4.5 -4.5,4.5 -2.4853,0 -4.5,-2.0147 -4.5,-4.5 0,-2.4853 2.0147,-4.5 4.5,-4.5 2.4853,0 4.5,2.0147 4.5,4.5 z" style="fill:#000000;fill-opacity:1;fill-rule:evenodd;stroke:#000000;stroke-width:0.5;stroke-linecap:round;stroke-linejoin:round;stroke-miterlimit:10;stroke-opacity:1;stroke-dasharray:none" id="path3339" inkscape:connector-curvature="0"/><path d="m 764.501,-599.999 c 0,2.4853 -2.0147,4.5 -4.5,4.5 -2.4853,0 -4.5,-2.0147 -4.5,-4.5 0,-2.4853 2.0147,-4.5 4.5,-4.5 2.4853,0 4.5,2.0147 4.5,4.5 z" style="fill:#000000;fill-opacity:1;fill-rule:evenodd;stroke:#000000;stroke-width:0.5;stroke-linecap:round;stroke-linejoin:round;stroke-miterlimit:10;stroke-opacity:1;stroke-dasharray:none" id="path3341" inkscape:connector-curvature="0"/><path d="m 1244.501,-599.999 c 0,2.4853 -2.015,4.5 -4.5,4.5 -2.485,0 -4.5,-2.0147 -4.5,-4.5 0,-2.4853 2.015,-4.5 4.5,-4.5 2.485,0 4.5,2.0147 4.5,4.5 z" style="fill:#000000;fill-opacity:1;fill-rule:evenodd;stroke:#000000;stroke-width:0.5;stroke-linecap:round;stroke-linejoin:round;stroke-miterlimit:10;stroke-opacity:1;stroke-dasharray:none" id="path3343" inkscape:connector-curvature="0"/></g>
  </g>
</svg>